<svg width="48" height="48" viewBox="0 0 48 48" fill="none" xmlns="http://www.w3.org/2000/svg">
  <defs>
    <linearGradient id="gradient1" x1="0%" y1="0%" x2="100%" y2="100%">
      <stop offset="0%" style="stop-color:#8B5CF6;stop-opacity:1" />
      <stop offset="50%" style="stop-color:#EC4899;stop-opacity:1" />
      <stop offset="100%" style="stop-color:#06B6D4;stop-opacity:1" />
    </linearGradient>
  </defs>
  <path d="M24 4C17.373 4 12 9.373 12 16C12 18.5 12.8 20.8 14.2 22.6C14.5 23 14.9 23.4 15.3 23.7C16.5 24.7 17.9 25.5 19.5 25.9C20.3 26.1 21.1 26.2 22 26.2C22.3 26.2 22.7 26.2 23 26.1C27.8 25.6 31.7 21.3 31.9 16C31.9 9.4 26.6 4 24 4Z" fill="url(#gradient1)" opacity="0.9"/>
  <path d="M33.8 18.2C33.7 18.8 33.5 19.4 33.3 20C32.5 22.5 30.8 24.6 28.6 26C27.9 26.5 27.1 26.9 26.3 27.2C25.1 27.7 23.8 27.9 22.5 27.9C22.2 27.9 21.8 27.9 21.5 27.8C20.2 27.7 18.9 27.4 17.7 26.9C16.5 26.4 15.4 25.7 14.5 24.8C13.6 23.9 12.8 22.9 12.2 21.7C11.6 20.5 11.2 19.3 11 18C10.9 17.3 10.8 16.7 10.8 16C10.8 8.3 17.1 2 24.8 2C32.5 2 38.8 8.3 38.8 16C38.8 16.7 38.7 17.3 38.6 18C38.4 20.3 37.7 22.4 36.5 24.3C35.9 25.2 35.2 26 34.3 26.7C33.4 27.4 32.5 28 31.5 28.4C30.5 28.8 29.4 29.1 28.3 29.2C28 29.2 27.7 29.3 27.3 29.3C26 29.3 24.8 29.1 23.6 28.7C22.4 28.3 21.3 27.7 20.3 26.9C19.3 26.1 18.5 25.2 17.8 24.1C17.1 23 16.6 21.8 16.3 20.5C16 19.2 15.9 17.9 15.9 16.5C15.9 15.1 16.1 13.8 16.4 12.5C16.7 11.2 17.2 10 17.9 8.9C18.6 7.8 19.4 6.8 20.4 6C21.4 5.2 22.5 4.5 23.7 4C24.9 3.5 26.2 3.2 27.5 3.1C27.8 3.1 28.2 3 28.5 3C29.8 3 31.1 3.2 32.3 3.6C33.5 4 34.6 4.6 35.6 5.4C36.6 6.2 37.4 7.1 38.1 8.2C38.8 9.3 39.3 10.5 39.6 11.8C39.9 13.1 40 14.4 40 15.8C40 17.2 39.8 18.5 39.5 19.8C39.2 21.1 38.7 22.3 38 23.4C37.3 24.5 36.5 25.5 35.5 26.3C34.5 27.1 33.4 27.8 32.2 28.3C31 28.8 29.7 29.1 28.4 29.2C28.1 29.2 27.7 29.3 27.4 29.3" fill="url(#gradient1)" opacity="0.7"/>
  <ellipse cx="24" cy="32" rx="14" ry="12" fill="url(#gradient1)" opacity="0.8"/>
</svg>
